<?xml version="1.0" encoding="UTF-8" standalone="no"?>
<svg width="52px" height="86px" viewBox="0 0 52 86" version="1.1" xmlns="http://www.w3.org/2000/svg" xmlns:xlink="http://www.w3.org/1999/xlink" xmlns:sketch="http://www.bohemiancoding.com/sketch/ns">
    <!-- Generator: Sketch 3.0.4 (8053) - http://www.bohemiancoding.com/sketch -->
    <title>pin_not_installed</title>
    <desc>Created with Sketch.</desc>
    <defs>
        <linearGradient x1="50%" y1="0%" x2="50%" y2="100%" id="linearGradient-1">
            <stop stop-color="#68D2DF" offset="0%"></stop>
            <stop stop-color="#46A5B1" offset="100%"></stop>
        </linearGradient>
    </defs>
    <g id="Page-1" stroke="none" stroke-width="1" fill="none" fill-rule="evenodd" sketch:type="MSPage">
        <g id="pin_not_installed" sketch:type="MSLayerGroup" transform="translate(1.000000, 1.000000)">
            <g id="Page-1" sketch:type="MSShapeGroup">
                <g id="pin_not_installed">
                    <path d="M23.922,-0.0012 C22.567,0.0788 21.2758,0.25755 20.0782,0.46755 C18.9307,0.67505 17.8332,0.94755 16.7657,1.3113 C10.6432,3.3713 5.9957,7.2638 3.0777,12.3423 C1.0715,15.8323 -0.2623,20.1811 0.0465,25.4983 C0.18025,27.9445 0.82525,30.1433 1.5777,32.1233 C2.36145,34.0771 3.2602,35.8371 4.3277,37.5295 C8.3927,44.1495 13.9202,50.0415 17.0467,57.6235 C18.6367,61.476 20.0355,65.5097 21.2342,69.7795 C22.403,73.9983 23.478,78.4783 23.9217,83.3735 L25.5467,83.3735 C25.9892,78.4785 27.0655,73.9985 28.2342,69.7795 C29.4342,65.5095 30.8304,61.4757 32.4217,57.6235 C35.5479,50.0423 41.0755,44.1495 45.1407,37.5295 C46.2095,35.837 47.1095,34.077 47.8907,32.1233 C48.64445,30.1433 49.2919,27.9445 49.4219,25.4983 C49.73315,20.1808 48.4269,15.8321 46.4219,12.3423 C43.5044,7.2635 38.8481,3.3711 32.7029,1.3113 C31.6354,0.94755 30.5379,0.67505 29.3904,0.46755 C28.1929,0.25755 26.9004,0.0788 25.5466,-0.0012 L24.7341,-0.0012 L23.922,-0.0012 L23.922,-0.0012 Z" id="Shape" stroke="#6B6C6D" stroke-width="1.5" fill="url(#linearGradient-1)"></path>
                    <g id="Group" transform="translate(4.000000, 4.000000)">
                        <path d="M40.9246558,20.041628 C40.9589816,27.2942237 37.109465,34.0106338 30.8341913,37.6468768 C24.5589177,41.2831198 16.8175391,41.2831198 10.5422654,37.6468768 C4.26699169,34.0106338 0.41747509,27.2942237 0.451800872,20.041628 C0.41747509,12.7890323 4.26699169,6.07262219 10.5422654,2.4363792 C16.8175391,-1.1998638 24.5589177,-1.1998638 30.8341913,2.4363792 C37.109465,6.07262219 40.9589816,12.7890323 40.9246558,20.041628 L40.9246558,20.041628 Z" id="Shape" stroke="#FFFFFF" stroke-width="1.85131884"></path>
                        <rect id="Rectangle-path" fill="#FFFFFF" x="17.5714286" y="2.92857143" width="2.71036357" height="19.2167" rx="0.77393"></rect>
                        <rect id="Rectangle-path" fill="#FFFFFF" x="19.0357143" y="20.107679" width="14.7747868" height="2.7695" rx="0.77393"></rect>
                    </g>
                </g>
            </g>
        </g>
    </g>
</svg>